<svg width="94" height="16" viewBox="0 0 94 16" fill="none" xmlns="http://www.w3.org/2000/svg">
    <path d="M29.402 13.977h4.237v.345c0 .947-.787 1.62-2.003 1.62h-4.542V5.334H29.4v8.643h.003zM37.145 5.334v8.39c0 1.774-.77 2.21-1.52 2.21h-.887v-10.6h2.407zM71.817 5.334v8.39c0 1.774-.77 2.21-1.521 2.21h-.886v-10.6h2.407zM76.34 5.328l3.804 7.106V5.328h2.22v10.614h-2.535L75.74 8.314v6.054c0 1.574-1.244 1.574-1.244 1.574h-.975V5.328h2.822M62.667 7.345h-2.886V5.331h8.21v2.014h-2.917v6.618c0 1.775-1.187 1.979-1.794 1.979h-.617V7.345h.004zM47.45 15.354c-.723.243-2.091.581-3.46.581-1.893 0-3.261-.472-4.215-1.377-.94-.902-1.46-2.247-1.46-3.758.017-3.423 2.524-5.38 5.923-5.38 1.34 0 2.369.26 2.876.489l-.493 1.88c-.571-.26-1.262-.443-2.4-.443-1.954 0-3.446 1.098-3.446 3.331 0 2.233 1.354 3.377 3.28 3.377.52 0 .953-.06 1.137-.137v-2.17h-1.599V9.93h3.86v5.424h-.003zM92.935 15.357c-.727.247-2.102.585-3.481.585-1.904 0-3.28-.476-4.24-1.384-.943-.909-1.468-2.261-1.468-3.783.014-3.444 2.538-5.409 5.956-5.409 1.344 0 2.382.26 2.893.493l-.496 1.891c-.575-.26-1.27-.447-2.415-.447-1.964 0-3.467 1.106-3.467 3.35 0 2.243 1.361 3.398 3.293 3.398.529 0 .961-.064 1.146-.138V11.73h-1.61V9.902h3.886v5.455h.003zM51.9 5.334v4.093h3.977V5.334h2.411V15.95h-2.41v-4.423H51.9v2.616c0 1.307-.755 1.807-1.464 1.807h-.943V5.334h2.41-.003zM12.439 5.328h1.411v10.621h-3.4V7.448c0-1.423.933-2.12 1.989-2.12zM.137 5.335l2 2.789c1.482 2.12 3.244 2.521 4.896 2.521h1.684L6.17 7.197C4.693 5.077 3.47 5.335 1.818 5.335H.134h.003zM11.843 2.803C10.361 4.923 8.599 5.32 6.947 5.32H5.263L7.81 1.873C9.287-.247 10.51.01 12.162.01h1.684l-2 2.789-.003.004zM23.698 13.125h-4.754V5.33h-3.41V15.95h5.286c2.233 0 2.878-1.712 2.878-2.599v-.229.004z" fill="#CBCBCB"/>
</svg>
