<svg width="94" height="16" viewBox="0 0 94 16" fill="none" xmlns="http://www.w3.org/2000/svg">
    <path d="M16.298 5.324h1.41V15.95H14.31V7.448c0-1.423.933-2.12 1.989-2.12v-.004zM4 5.328l2 2.789c1.481 2.12 3.243 2.521 4.895 2.521h1.684l-2.545-3.447C8.556 5.07 7.332 5.328 5.68 5.328H4zM15.706 2.799c-1.482 2.12-3.243 2.522-4.896 2.522H9.126l2.546-3.448C13.15-.247 14.37.01 16.022.01h1.684l-2 2.789zM27.561 13.121h-4.754V5.328h-3.41v10.618h5.285c2.234 0 2.879-1.712 2.879-2.6v-.228.003zM31.436 13.4c.613.32 1.595.64 2.595.64 1.074 0 1.642-.443 1.642-1.13 0-.627-.493-1.007-1.734-1.434-1.72-.609-2.858-1.556-2.858-3.067 0-1.754 1.49-3.081 3.918-3.081 1.184 0 2.028.229 2.641.517l-.521 1.863a4.876 4.876 0 0 0-2.152-.49c-1 0-1.503.473-1.503.99 0 .655.567.948 1.921 1.465 1.826.673 2.673 1.617 2.673 3.082 0 1.725-1.318 3.19-4.162 3.19-1.184 0-2.35-.32-2.935-.64l.475-1.906zM47.13 15.505c-.415.198-1.538.444-2.783.444-3.577 0-5.42-2.23-5.42-5.173 0-3.511 2.52-5.448 5.65-5.448 1.217 0 2.139.243 2.553.457v1.832c-.46-.197-1.613-.38-2.46-.38-1.844 0-3.286 1.112-3.286 3.415 0 2.06 1.23 3.357 3.304 3.357.723 0 1.967-.138 2.442-.335v1.831zM58.83 11.456h-3.932v2.521h4.393v.349c0 .947-.787 1.623-2.007 1.623h-4.8V5.324h6.583v1.972h-4.169v2.205h3.932v1.955zM86.73 11.456H82.8v2.521h4.392v.349c0 .947-.787 1.623-2.007 1.623h-4.8V5.324h6.58v1.972h-4.169v2.205h3.932v1.955h.003zM63.332 5.324l3.804 7.114V5.324h2.223v10.622h-2.535l-4.09-7.632v6.057c0 1.575-1.249 1.575-1.249 1.575h-.975V5.324h2.822zM78.973 15.505c-.414.198-1.535.444-2.779.444-3.58 0-5.42-2.23-5.42-5.173 0-3.511 2.516-5.448 5.65-5.448 1.213 0 2.135.243 2.55.457v1.832c-.462-.197-1.614-.38-2.457-.38-1.844 0-3.29 1.112-3.29 3.415 0 2.06 1.23 3.357 3.304 3.357.723 0 1.964-.138 2.442-.335v1.831zM50.864 5.324v8.491c0 1.708-.741 2.127-1.464 2.127h-.855V5.324h2.319z" fill="#CBCBCB"/>
</svg>
