<svg width="94" height="16" viewBox="0 0 94 16" fill="none" xmlns="http://www.w3.org/2000/svg">
    <path d="M23.03 5.324h1.41v10.625h-3.399V7.448c0-1.423.932-2.12 1.989-2.12v-.004zM10.728 5.331l2 2.79c1.482 2.12 3.244 2.52 4.896 2.52h1.684l-2.546-3.447c-1.478-2.12-2.701-1.863-4.353-1.863h-1.684.003zM22.434 2.799c-1.482 2.12-3.244 2.518-4.896 2.518h-1.684l2.545-3.448C19.878-.247 21.101.01 22.75.01h1.684l-2 2.79zM34.289 13.121h-4.754V5.328h-3.41v10.618h5.285c2.234 0 2.879-1.712 2.879-2.6v-.228.003zM45.86 15.505c-.41.197-1.53.44-2.768.44-3.567 0-5.403-2.218-5.403-5.152 0-3.497 2.51-5.427 5.63-5.427 1.209 0 2.127.243 2.538.455v1.824c-.46-.197-1.606-.38-2.45-.38-1.836 0-3.275 1.109-3.275 3.405 0 2.053 1.226 3.345 3.29 3.345.72 0 1.956-.137 2.431-.334v1.824h.008zM52.114 15.945c-3.045 0-4.85-2.296-4.85-5.212 0-3.07 1.99-5.363 5.017-5.363 3.028 0 4.896 2.356 4.896 5.184 0 3.374-2.035 5.395-5.048 5.395h-.015v-.004zm.107-1.838c1.577 0 2.478-1.475 2.478-3.48 0-1.838-.872-3.419-2.478-3.419-1.606 0-2.51 1.55-2.51 3.466 0 1.915.932 3.433 2.496 3.433h.014zM70.957 5.366v6.05c0 1.779.691 2.673 1.868 2.673s1.897-.852 1.897-2.673v-6.05h2.326v5.913c0 3.163-1.606 4.666-4.297 4.666s-4.116-1.444-4.116-4.698v-5.88h2.325-.003zM78.81 13.406c.609.32 1.59.638 2.584.638 1.07 0 1.637-.44 1.637-1.124 0-.623-.489-1.003-1.73-1.43-1.712-.605-2.846-1.55-2.846-3.053 0-1.747 1.485-3.07 3.903-3.07 1.177 0 2.017.228 2.63.517l-.52 1.852a4.843 4.843 0 0 0-2.142-.486c-.996 0-1.5.472-1.5.99 0 .655.568.944 1.911 1.458 1.822.669 2.663 1.613 2.663 3.07 0 1.72-1.316 3.177-4.145 3.177-1.177 0-2.34-.32-2.924-.637l.475-1.898.003-.004zM61.346 5.363l3.793 7.085V5.363h2.213v10.582h-2.528l-4.077-7.603v6.036c0 1.571-1.241 1.571-1.241 1.571h-.971V5.363h2.811z" fill="#CBCBCB"/>
</svg>
