<svg width="94" height="16" viewBox="0 0 94 16" fill="none" xmlns="http://www.w3.org/2000/svg">
    <path d="M16.948 15.22 9.741.556a.305.305 0 0 0-.546 0L1.987 15.22c-.099.201.05.433.273.433h5.552c.525 0 .028-1.475 0-1.57-.053-.2-.29-.254-.49-.275-.212-.024-.36-.031-.57-.056a.47.47 0 0 1-.096-.021h-.014c-.312-.053-.425-.29-.266-.56.078-.13.068-.233-.025-.338-.067-.081-.053-.173.025-.233.036-.028.075-.038.114-.056-.163-.123-.17-.17-.06-.345.017-.028.035-.053.056-.081.057-.085.021-.176-.07-.212a.57.57 0 0 1-.203-.137c-.156-.155-.142-.257.05-.377.23-.144.443-.31.652-.482.085-.07.089-.152.021-.236-.024-.032-.056-.064-.078-.099-.039-.07 0-.19.06-.232.182-.13.263-.282.419-.437l.028-.021a.596.596 0 0 0 .007-.275c-.056-.243.047-.405.263-.531.106-.064.227-.134.287-.268.096-.215.174-.254.39-.173.12.046.234.036.347 0a1.97 1.97 0 0 1 .241-.053c.394-.07.795-.088 1.188-.172.34-.07.656.056.96.187.213.091.359.232.476.422.135.219.429.275.51.532.007.021.05.035.078.046.082.031.128.095.178.162.124.162.195.352.294.524.234.416.117 1.511-.652 2.328-.348.366-.95.754-1.085 1.011-.096.18-.146.402-.1.57.146.511.536 1.462 1.585 1.462h4.36a.301.301 0 0 0 .274-.433l-.018-.004zM89 10.804c0-1.578-1.166-2.775-3.049-3.12l-1.482-.278c-1.088-.198-1.251-.863-1.251-1.244 0-.672.638-1.37 1.705-1.37 1.422 0 1.858.884 1.985 1.335l1.851-.517C88.568 4.82 87.816 3 84.937 3c-2.116 0-3.775 1.472-3.775 3.35 0 1.538 1.095 2.704 2.86 3.042l1.518.278c.84.159 1.344.641 1.344 1.289 0 .8-.706 1.338-1.755 1.338-1.355 0-2.259-.687-2.46-1.849l-1.89.455c.198 1.257 1.294 3.187 4.318 3.187 2.535 0 3.903-1.694 3.903-3.286zM49.064 11.91v-1.856c0-.352.287-.637.638-.637h4.672V7.638h-5.31V5.162h5.31V3.23H46.98v9.156c0 .81.663 1.469 1.478 1.469h5.931v-1.947h-5.32l-.004.003zM73.34 3.236H69.52v9.157c0 .81.663 1.468 1.478 1.468h2.33c3.272 0 5.388-2.081 5.388-5.304 0-3.222-2.11-5.32-5.37-5.32h-.004zm-.106 8.692h-1.63V5.803a.64.64 0 0 1 .641-.637h.99c2.027 0 3.286 1.3 3.286 3.388s-1.259 3.37-3.287 3.37v.004zM26.038 3.236l-4.027 10.625h2.184l.45-1.257a.414.414 0 0 1 .025-.07l.145-.41c.106-.299.39-.496.709-.496h4.02l.798 2.237h2.276L28.637 3.24h-2.595l-.004-.004zm2.854 6.536h-3.226l1.45-4.057h.361l1.418 4.057h-.003zM60.663 3.236l-4.027 10.625h2.183l.45-1.257a.414.414 0 0 1 .026-.07l.145-.41a.75.75 0 0 1 .709-.496h4.02l.798 2.237h2.276L63.262 3.24h-2.595l-.004-.004zm2.854 6.536H60.29l1.45-4.057h.361l1.418 4.057h-.003zM42.18 3.236V7.55h-4.804V3.236H35.29v9.156c0 .81.663 1.469 1.478 1.469h.607v-3.74a.64.64 0 0 1 .641-.637h4.166v4.377h2.099V3.236h-2.103z" fill="#CBCBCB"/>
</svg>
