<svg width="94" height="16" viewBox="0 0 94 16" fill="none" xmlns="http://www.w3.org/2000/svg">
    <path d="M62.384 4.44s-.032.014-.032.032v10.216s.015.032.032.032h2.184s.032-.014.032-.032V4.468s-.014-.031-.032-.031h-2.184v.003zM12.242 4.454s-.032.014-.032.032V6.36s.014.031.032.031h3.988c.057 0 .103.046.103.102v8.213s.014.032.032.032h1.007c.666 0 1.209-.532 1.209-1.187V6.493c0-.056.046-.102.102-.102h3.989s.032-.014.032-.028V4.49s-.015-.032-.032-.032H12.245l-.003-.004zM69.454 4.447c-1.44 0-2.61 1.152-2.61 2.564v5.06c0 1.413 1.17 2.565 2.61 2.565H76.3s.032-.015.032-.032v-1.018a.934.934 0 0 0-.94-.923h-5.555a.741.741 0 0 1-.748-.732V7.053c0-.362.301-.658.67-.658h5.63c.517 0 .94-.412.94-.923V4.48s-.015-.032-.033-.032H69.45h.004zM52.302 6.416H57.1c.369 0 .67.296.67.658v6.639c0 .507.422.923.94.923h1.283s.032-.014.032-.032V7.018c0-1.412-1.17-2.564-2.61-2.564h-5.526c-1.44 0-2.61 1.152-2.61 2.564v7.586s.014.032.032.032h1.312c.517 0 .94-.412.94-.923V7.152a.74.74 0 0 1 .747-.733l-.007-.003zM79.746 12.66a.931.931 0 0 0-.94.923v1.02s.014.033.032.033h6.87c1.34 0 2.429-1.071 2.429-2.388V10.94c0-1.317-1.092-2.387-2.432-2.387h-4.704a.528.528 0 0 1-.532-.522V6.941c0-.289.237-.521.532-.521h5.477c.518 0 .94-.413.94-.923V4.476s-.015-.032-.033-.032h-6.721c-1.34 0-2.429 1.07-2.429 2.388v1.306c0 1.317 1.089 2.388 2.429 2.388h4.704c.29 0 .532.232.532.521v1.092a.526.526 0 0 1-.532.521h-5.626.004zM9.686 4.454h-2.13a.127.127 0 0 0-.128.127v2.43c0 .06.064.095.117.067L9.72 5.785c.06-.031.1-.095.1-.162V4.577a.127.127 0 0 0-.128-.126l-.007.003zM44.286 4.324H39.04c-1.567 0-2.833 1.247-2.833 2.786v5.007c0 1.54 1.27 2.786 2.836 2.786h5.247c1.567 0 2.833-1.247 2.833-2.786V7.11c0-1.54-1.27-2.786-2.837-2.786zm.589 7.505c0 .609-.504 1.102-1.12 1.102h-4.18a1.11 1.11 0 0 1-1.12-1.102V7.374c0-.61.503-1.103 1.12-1.103h4.18c.62 0 1.12.494 1.12 1.103v4.455zM9.7 6.38 5.938 8.597c-.06.031-.06.091-.06.091v.057a.08.08 0 0 0 .081.077h1.472v6.096h1.358c.57 0 1.031-.454 1.031-1.014V6.455a.08.08 0 0 0-.117-.07L9.7 6.38zM31.63 10.59c1.053.02 1.805-.684 2.23-1.53.348-.693.486-1.493.333-2.25-.156-.757-.616-1.461-1.283-1.866-.83-.5-1.858-.51-2.833-.507l-5.463.024v1.93l5.64-.01c.298 0 .6 0 .88.098.422.148.755.529.83.962a1.22 1.22 0 0 1-.472 1.169c-.418.306-.982.313-1.503.31-1.17-.01-2.34-.025-3.51-.035-.567-.007-1.216.024-1.578.454-.276.33-.287.796-.287 1.222v4.173h2.244V10.83h1.954c.074 0 .149 0 .216.028.103.038.17.134.234.222l1.83 2.588c.286.405.602.831 1.074.997.272.095.57.091.86.088l1.632-.029-3.028-4.127v-.007z" fill="#CBCBCB"/>
</svg>
